<?xml version="1.0" encoding="utf-8"?>
<svg version="1.1" xmlns="http://www.w3.org/2000/svg" fill="#f8b62d" viewBox="0 0 432.3 197.4">
<path d="M216.2,0.5h-48v48c0,26.5,21.5,48,48,48c26.5,0,48-21.5,48-48C264.2,22,242.7,0.5,216.2,0.5z M216.2,80.5
	c-17.7,0-32-14.3-32-32s14.3-32,32-32c17.7,0,32,14.3,32,32S233.8,80.5,216.2,80.5z"/>
<path d="M10.1,153.1c-1.4,0-2.8-0.1-4.2-0.5c-1.2-0.3-2.3-0.9-3.2-1.8c-0.9-1-1.6-2.2-2-3.5c-0.5-1.9-0.8-3.8-0.7-5.7
	c0-1.8,0.2-3.6,0.7-5.4c0.4-1.3,1.1-2.5,2.1-3.5c0.9-0.9,2-1.6,3.3-1.9c1.4-0.4,2.9-0.6,4.3-0.6c0.9,0,1.8,0,2.7,0.2
	c0.7,0.1,1.4,0.3,2.1,0.5v2.6c-0.7-0.2-1.4-0.4-2.1-0.6c-0.9-0.1-1.7-0.2-2.6-0.2c-1.1,0-2.2,0.1-3.3,0.4c-0.9,0.3-1.7,0.8-2.3,1.5
	c-0.7,0.8-1.2,1.7-1.4,2.7c-0.3,1.4-0.5,2.8-0.5,4.2c0,1.5,0.1,2.9,0.4,4.4c0.2,1,0.7,1.9,1.3,2.7c0.6,0.7,1.4,1.2,2.2,1.4
	c1,0.3,2.1,0.4,3.2,0.4c0.9,0,1.9-0.1,2.8-0.2c0.9-0.1,1.7-0.4,2.5-0.7v2.5c-0.7,0.3-1.5,0.5-2.3,0.7
	C12.2,153,11.1,153.1,10.1,153.1z"/>
<path d="M39.5,153.1c-1.2,0-2.3-0.1-3.4-0.4c-0.9-0.3-1.8-0.8-2.5-1.5c-0.7-0.8-1.3-1.7-1.6-2.8c-0.7-2.8-0.7-5.8,0-8.6
	c0.3-1,0.8-2,1.6-2.7c0.7-0.7,1.6-1.2,2.5-1.5c2.2-0.6,4.6-0.6,6.8,0c0.9,0.3,1.8,0.8,2.5,1.5c0.7,0.8,1.2,1.7,1.5,2.8
	c0.7,2.8,0.7,5.8,0,8.6c-0.3,1-0.8,2-1.5,2.8c-0.7,0.7-1.6,1.2-2.5,1.5C41.9,153,40.7,153.2,39.5,153.1z M39.5,150.8
	c0.8,0,1.7-0.1,2.4-0.3c0.6-0.2,1.2-0.6,1.6-1.1c0.4-0.6,0.7-1.3,0.8-2c0.2-1,0.3-2.1,0.2-3.2c0-1.1-0.1-2.1-0.3-3.2
	c-0.1-0.7-0.4-1.4-0.8-2c-0.4-0.5-0.9-0.9-1.6-1.1c-1.6-0.5-3.2-0.5-4.8,0c-0.6,0.2-1.2,0.6-1.6,1.1c-0.4,0.6-0.7,1.3-0.8,2
	c-0.2,1-0.3,2.1-0.2,3.2c0,1.1,0.1,2.1,0.2,3.2c0.1,0.7,0.4,1.4,0.9,2c0.4,0.5,0.9,0.9,1.6,1.1C37.9,150.7,38.7,150.8,39.5,150.8z"
	/>
<path d="M69,153c-1,0.1-2.1-0.2-2.9-0.9c-0.7-0.7-1.1-1.8-1-2.8v-20.9h2.8v20.1c-0.1,0.6,0.1,1.2,0.4,1.7
	c0.3,0.3,0.8,0.4,1.2,0.4h0.6c0.2,0,0.5-0.1,0.7-0.1v2.3c-0.3,0.1-0.5,0.1-0.8,0.1C69.6,153,69.3,153,69,153z"/>
<path d="M90.9,153c-1,0.1-2.1-0.2-2.9-0.9c-0.7-0.7-1.1-1.8-1-2.8v-20.9h2.8v20.1c-0.1,0.6,0.1,1.2,0.4,1.7
	c0.3,0.3,0.8,0.4,1.2,0.4H92c0.2,0,0.5-0.1,0.7-0.1v2.3c-0.3,0.1-0.5,0.1-0.8,0.1C91.6,153,91.3,153,90.9,153z"/>
<path d="M122.8,142.5c0,0.2,0,0.5,0,0.9s-0.1,0.7-0.1,1.1l-11.7,0.7c0,0.8,0.1,1.6,0.3,2.5c0.2,0.6,0.5,1.2,0.9,1.7
	c0.5,0.5,1.1,0.8,1.7,1c0.9,0.2,1.7,0.4,2.6,0.3c1,0,2-0.1,2.9-0.3c0.9-0.2,1.7-0.4,2.5-0.8v2.5c-0.3,0.2-0.7,0.3-1,0.4
	c-0.4,0.1-0.9,0.2-1.4,0.3c-0.5,0.1-1.1,0.2-1.6,0.2s-1.2,0.1-1.8,0.1c-1.2,0-2.3-0.1-3.4-0.4c-1-0.3-1.8-0.8-2.5-1.5
	c-0.7-0.8-1.3-1.7-1.6-2.8c-0.7-2.8-0.7-5.8,0-8.6c0.3-1,0.8-2,1.5-2.8c0.7-0.7,1.5-1.2,2.5-1.5c1.1-0.3,2.2-0.4,3.3-0.4
	c1.2,0,2.4,0.2,3.6,0.6c0.8,0.4,1.6,1,2.1,1.7c0.5,0.7,0.8,1.5,1,2.3C122.7,140.7,122.8,141.6,122.8,142.5z M120.1,142.5
	c0-0.6,0-1.3-0.1-1.9c-0.1-0.6-0.3-1.1-0.6-1.6c-0.3-0.5-0.8-0.9-1.3-1.1c-0.7-0.3-1.5-0.4-2.2-0.4c-0.8,0-1.7,0.1-2.4,0.4
	c-0.6,0.2-1.1,0.6-1.5,1.1c-0.4,0.5-0.6,1.1-0.8,1.8c-0.2,0.8-0.2,1.6-0.3,2.4L120.1,142.5z"/>
<path d="M147.3,153.1c-1.2,0-2.3-0.1-3.4-0.4c-1-0.3-1.8-0.8-2.5-1.5c-0.7-0.8-1.3-1.7-1.6-2.8c-0.7-2.8-0.7-5.8,0-8.6
	c0.3-1,0.8-2,1.6-2.8c0.7-0.7,1.6-1.2,2.5-1.5c1.1-0.3,2.3-0.4,3.4-0.4c0.9,0,1.7,0.1,2.6,0.2c0.6,0.1,1.3,0.2,1.9,0.5v2.5
	c-1.4-0.5-3-0.8-4.5-0.8c-0.8,0-1.6,0.1-2.4,0.3c-0.6,0.2-1.2,0.6-1.6,1.1c-0.4,0.6-0.7,1.3-0.9,2c-0.2,1.1-0.3,2.1-0.3,3.2
	c0,1,0.1,2.1,0.3,3.1c0.1,0.7,0.4,1.4,0.9,2c0.4,0.5,1,0.9,1.6,1.1c0.8,0.2,1.6,0.3,2.4,0.3c0.8,0,1.6-0.1,2.4-0.2
	c0.7-0.1,1.4-0.3,2.1-0.6v2.5c-0.3,0.1-0.6,0.2-0.9,0.2c-0.4,0.1-0.7,0.1-1.1,0.2c-0.4,0.1-0.9,0.1-1.3,0.1
	C148.2,153.1,147.7,153.1,147.3,153.1z"/>
<path d="M174.4,150.7c0.3,0,0.7,0,1,0c0.3,0,0.6-0.1,0.9-0.1v2.3l-1,0.1c-0.3,0-0.6,0-1,0c-0.8,0-1.6-0.1-2.4-0.2
	c-0.6-0.1-1.2-0.4-1.6-0.8c-0.4-0.5-0.8-1-0.9-1.7c-0.2-0.9-0.3-1.8-0.3-2.8v-9.7h-2.5v-2.3h2.6v-4.1h2.8v4.1h4.3v2.3H172v9.5
	c0,0.6,0,1.1,0.1,1.7c0,0.4,0.2,0.7,0.4,1c0.2,0.2,0.5,0.4,0.8,0.5C173.6,150.7,174,150.7,174.4,150.7z"/>
<path d="M220.5,135.2c1.1,0,2.3,0.1,3.4,0.4c0.8,0.2,1.5,0.6,2.1,1.1c0.5,0.5,0.9,1,1.1,1.7c0.2,0.7,0.3,1.4,0.3,2.1
	v12.3h-2.3l-0.4-2.6c-0.3,0.5-0.6,0.9-1,1.2c-0.4,0.4-0.9,0.7-1.5,0.9c-0.6,0.3-1.2,0.5-1.8,0.6c-0.6,0.1-1.3,0.2-1.9,0.2
	c-1.6,0.1-3.2-0.3-4.5-1.4c-1-1-1.5-2.4-1.4-3.8c0-0.9,0.1-1.8,0.5-2.6c0.3-0.7,0.8-1.3,1.4-1.7c0.7-0.5,1.4-0.8,2.2-0.9
	c0.9-0.2,1.9-0.3,2.8-0.3h5.3V141c0-0.5-0.1-1-0.2-1.4c-0.1-0.4-0.3-0.8-0.6-1.1c-0.4-0.3-0.8-0.6-1.3-0.7c-0.7-0.2-1.4-0.3-2.1-0.3
	c-0.6,0-1.2,0-1.9,0.1c-0.6,0.1-1.3,0.2-1.9,0.3v-2.4c0.6-0.1,1.3-0.1,2-0.2S219.9,135.2,220.5,135.2z M218.7,150.8
	c1.3,0,2.6-0.3,3.7-0.9c1-0.5,1.8-1.4,2.2-2.4v-2.9h-5.1c-0.6,0-1.2,0-1.9,0.1c-0.5,0.1-0.9,0.2-1.3,0.5c-0.3,0.3-0.6,0.6-0.8,1
	c-0.2,0.5-0.3,1.1-0.2,1.6c-0.1,0.8,0.2,1.6,0.8,2.2C216.9,150.7,217.8,150.9,218.7,150.8z"/>
<path d="M254.3,135.2c1,0,1.9,0.1,2.8,0.4c0.7,0.2,1.3,0.6,1.8,1.2c0.4,0.5,0.8,1.1,0.9,1.8c0.2,0.7,0.3,1.5,0.3,2.3v12
	h-2.8v-11c0-0.6,0-1.2-0.1-1.8c-0.1-0.5-0.2-0.9-0.5-1.3c-0.3-0.4-0.6-0.6-1-0.8c-0.5-0.2-1.1-0.3-1.7-0.3c-0.5,0-1.1,0-1.6,0.1
	c-0.5,0.1-1,0.2-1.5,0.5c-0.5,0.3-0.9,0.6-1.2,1c-0.4,0.5-0.7,1.2-0.9,1.8v11.7h-2.8v-17.2h2.8v2.5c0.2-0.5,0.6-1,1-1.4
	c0.4-0.4,0.9-0.6,1.4-0.8c0.5-0.2,1-0.4,1.5-0.4C253.3,135.3,253.8,135.2,254.3,135.2z"/>
<path d="M293.1,128.5v24.3h-2.3l-0.4-2.9c-0.4,0.9-1,1.7-1.9,2.3c-1.1,0.7-2.4,1-3.7,0.9c-1.2,0-2.4-0.2-3.5-0.7
	c-0.9-0.4-1.6-1-2.2-1.8c-0.6-0.9-0.9-1.8-1.1-2.8c-0.2-1.2-0.3-2.4-0.3-3.6c0-1.1,0.1-2.3,0.3-3.4c0.2-1,0.5-2,1.1-2.9
	c0.5-0.8,1.3-1.5,2.2-2c1.1-0.5,2.3-0.8,3.5-0.7c0.7,0,1.5,0.1,2.2,0.2c0.6,0.1,1.1,0.4,1.6,0.7c0.4,0.3,0.8,0.6,1.1,1
	c0.3,0.4,0.5,0.9,0.7,1.4v-10H293.1z M285.1,150.8c0.9,0,1.8-0.1,2.6-0.5c0.7-0.3,1.2-0.7,1.6-1.3c0.4-0.6,0.7-1.3,0.9-2.1
	c0.2-0.9,0.2-1.8,0.2-2.8c0-0.9-0.1-1.8-0.2-2.7c-0.1-0.8-0.4-1.5-0.9-2.1c-0.4-0.6-1-1.1-1.6-1.4c-0.8-0.3-1.7-0.5-2.6-0.5
	c-0.9,0-1.7,0.2-2.5,0.6c-0.6,0.4-1.1,0.9-1.4,1.5c-0.3,0.7-0.5,1.4-0.6,2.1c-0.1,0.8-0.1,1.6-0.1,2.5c0,0.9,0,1.7,0.1,2.6
	c0.1,0.7,0.3,1.5,0.6,2.1c0.3,0.6,0.8,1.1,1.4,1.4C283.5,150.6,284.3,150.8,285.1,150.8L285.1,150.8z"/>
<path d="M332.8,130.6h6.2c1.3,0,2.6,0.1,3.9,0.4c0.9,0.2,1.8,0.7,2.5,1.3c0.6,0.6,1.1,1.4,1.3,2.2
	c0.3,1,0.4,2.1,0.4,3.2c0,1.1-0.1,2.3-0.5,3.3c-0.3,0.9-0.8,1.6-1.4,2.2c-0.7,0.6-1.6,1.1-2.5,1.3c-1.2,0.3-2.5,0.4-3.7,0.4h-3.3
	v7.9h-2.9L332.8,130.6z M338.7,142.5c0.9,0,1.7-0.1,2.6-0.2c0.6-0.1,1.2-0.4,1.7-0.8c0.4-0.4,0.7-0.9,0.9-1.5
	c0.2-0.8,0.3-1.6,0.3-2.3c0-0.7-0.1-1.5-0.3-2.2c-0.2-0.5-0.5-1-0.9-1.4c-0.5-0.4-1.1-0.7-1.7-0.8c-0.9-0.2-1.7-0.3-2.6-0.2h-3v9.4
	H338.7z"/>
<path d="M368.5,153c-1,0.1-2.1-0.2-2.9-0.9c-0.7-0.7-1.1-1.8-1-2.8v-20.9h2.8v20.1c-0.1,0.6,0.1,1.2,0.4,1.7
	c0.3,0.3,0.8,0.4,1.2,0.4h0.6c0.2,0,0.5-0.1,0.7-0.1v2.3c-0.3,0.1-0.5,0.1-0.8,0.1C369.2,153,368.8,153,368.5,153z"/>
<path d="M393.5,135.2c1.1,0,2.3,0.1,3.4,0.4c0.8,0.2,1.5,0.6,2.1,1.1c0.5,0.5,0.9,1,1.1,1.7c0.2,0.7,0.3,1.4,0.3,2.1
	v12.3H398l-0.4-2.6c-0.3,0.5-0.6,0.9-1,1.2c-0.4,0.4-0.9,0.7-1.5,0.9c-0.6,0.3-1.2,0.5-1.8,0.6c-0.6,0.1-1.3,0.2-1.9,0.2
	c-1.6,0.1-3.2-0.3-4.5-1.4c-1-1-1.5-2.4-1.4-3.8c0-0.9,0.1-1.8,0.5-2.6c0.3-0.7,0.8-1.3,1.4-1.7c0.6-0.5,1.4-0.8,2.2-0.9
	c0.9-0.2,1.9-0.3,2.8-0.3h5.3V141c0-0.5-0.1-1-0.2-1.4c-0.1-0.4-0.3-0.8-0.6-1.1c-0.4-0.3-0.8-0.6-1.3-0.7c-0.7-0.2-1.4-0.3-2.1-0.3
	c-0.6,0-1.2,0-1.9,0.1c-0.7,0.1-1.3,0.2-1.9,0.3v-2.4c0.6-0.1,1.3-0.1,2-0.2S392.9,135.2,393.5,135.2z M391.7,150.8
	c1.3,0,2.6-0.3,3.7-0.9c1-0.5,1.8-1.4,2.2-2.4v-2.9h-5.1c-0.6,0-1.2,0-1.9,0.1c-0.5,0.1-0.9,0.2-1.3,0.5c-0.3,0.3-0.6,0.6-0.8,1
	c-0.2,0.5-0.3,1.1-0.2,1.6c-0.1,0.8,0.2,1.6,0.8,2.2C389.8,150.7,390.7,150.9,391.7,150.8z"/>
<path d="M417.9,156.9c1.2,0.1,2.4-0.3,3.3-1c0.8-0.9,1.5-1.9,1.8-3.1l-6.9-17.2h3l5.3,14.3h0.2l5-14.3h2.8l-6.2,16.7
	c-0.4,1-0.8,2-1.2,2.9c-0.4,0.8-0.9,1.6-1.5,2.2c-0.6,0.6-1.4,1.1-2.2,1.4c-1,0.3-2.1,0.5-3.2,0.5L417.9,156.9z"/>
<path d="M74,183.9c0.7,0,1.4,0.1,2,0.4c0.5,0.2,0.9,0.6,1.2,1c0.3,0.5,0.5,1,0.6,1.6c0.1,0.7,0.2,1.3,0.2,2
	c0,0.6-0.1,1.3-0.2,1.9c-0.1,0.6-0.3,1.1-0.6,1.6c-0.3,0.5-0.7,0.9-1.2,1.1c-0.6,0.3-1.3,0.4-2,0.4c-0.7,0.1-1.5-0.1-2.1-0.5
	c-0.5-0.3-0.8-0.8-1-1.4l-0.2,1.7h-1.4v-13.6h1.6v5.7c0.2-0.6,0.5-1,1-1.4C72.4,184.1,73.2,183.9,74,183.9z M73.8,192.7
	c0.5,0,1-0.1,1.4-0.3c0.3-0.2,0.6-0.5,0.8-0.8c0.2-0.4,0.3-0.8,0.4-1.2c0.1-0.5,0.1-0.9,0.1-1.4c0-0.5,0-1-0.1-1.4
	c0-0.4-0.2-0.8-0.4-1.2c-0.2-0.3-0.4-0.6-0.8-0.8c-0.4-0.2-0.9-0.3-1.4-0.3c-0.5,0-1,0.1-1.5,0.3c-0.4,0.2-0.7,0.4-0.9,0.8
	c-0.2,0.4-0.4,0.8-0.5,1.2c-0.1,0.5-0.1,1-0.1,1.5c0,0.5,0,1,0.1,1.5c0.1,0.4,0.3,0.8,0.5,1.2c0.2,0.3,0.6,0.6,0.9,0.8
	C72.8,192.6,73.3,192.7,73.8,192.7L73.8,192.7z"/>
<path d="M90.2,184.1v9.7h-1.3l-0.2-1.4c-0.1,0.3-0.3,0.6-0.6,0.8c-0.2,0.2-0.5,0.4-0.8,0.5c-0.3,0.1-0.6,0.2-0.9,0.2
	c-0.3,0-0.6,0.1-0.9,0.1c-0.5,0-1.1-0.1-1.6-0.2c-0.4-0.1-0.7-0.4-1-0.6c-0.3-0.3-0.4-0.6-0.5-1c-0.1-0.4-0.2-0.8-0.2-1.3v-6.7H84
	v6.2c0,0.3,0,0.7,0.1,1c0,0.3,0.1,0.5,0.3,0.8c0.1,0.2,0.3,0.4,0.6,0.5c0.3,0.1,0.6,0.2,0.9,0.2c0.3,0,0.6,0,0.9-0.1
	c0.3,0,0.6-0.1,0.8-0.3c0.3-0.1,0.5-0.3,0.7-0.6c0.2-0.3,0.4-0.6,0.5-1v-6.6L90.2,184.1z"/>
<path d="M100,183.9c0.7,0,1.4,0.1,2,0.4c0.5,0.2,0.9,0.6,1.2,1c0.3,0.5,0.5,1,0.6,1.6c0.1,0.7,0.2,1.3,0.2,2
	c0,0.6-0.1,1.3-0.2,1.9c-0.1,0.6-0.3,1.1-0.6,1.6c-0.3,0.5-0.7,0.9-1.2,1.1c-0.6,0.3-1.3,0.4-2,0.4c-0.7,0.1-1.5-0.1-2.1-0.5
	c-0.5-0.3-0.8-0.8-1-1.4l-0.2,1.7h-1.4v-13.6h1.5v5.7c0.2-0.6,0.5-1,1-1.4C98.5,184.1,99.3,183.9,100,183.9z M99.8,192.7
	c0.5,0,0.9-0.1,1.4-0.3c0.3-0.2,0.6-0.5,0.8-0.8c0.2-0.4,0.3-0.8,0.4-1.2c0.1-0.5,0.1-0.9,0.1-1.4c0-0.5,0-1-0.1-1.4
	c0-0.4-0.2-0.8-0.4-1.2c-0.2-0.3-0.4-0.6-0.8-0.8c-0.4-0.2-0.9-0.3-1.4-0.3c-0.5,0-1,0.1-1.5,0.3c-0.4,0.2-0.7,0.4-0.9,0.8
	c-0.2,0.4-0.4,0.8-0.5,1.2c-0.1,0.5-0.2,1-0.1,1.5c0,0.5,0,1,0.1,1.5c0.1,0.4,0.2,0.8,0.5,1.2c0.2,0.3,0.6,0.6,0.9,0.8
	C98.8,192.6,99.3,192.7,99.8,192.7L99.8,192.7z"/>
<path d="M112.5,194c-0.6,0-1.3-0.1-1.9-0.2c-0.5-0.1-1-0.4-1.4-0.8c-0.4-0.4-0.7-1-0.9-1.5c-0.2-0.8-0.3-1.6-0.3-2.4
	c0-0.8,0.1-1.6,0.3-2.4c0.2-0.6,0.5-1.1,0.9-1.5c0.4-0.4,0.9-0.7,1.4-0.8c1.3-0.3,2.6-0.3,3.8,0c0.5,0.1,1,0.4,1.4,0.8
	c0.4,0.4,0.7,1,0.9,1.5c0.2,0.8,0.3,1.6,0.3,2.4c0,0.8-0.1,1.6-0.3,2.4c-0.2,0.6-0.4,1.1-0.9,1.5c-0.4,0.4-0.9,0.7-1.4,0.8
	C113.8,193.9,113.1,194,112.5,194z M112.5,192.7c0.5,0,0.9,0,1.4-0.2c0.3-0.1,0.7-0.3,0.9-0.6c0.2-0.3,0.4-0.7,0.5-1.1
	c0.1-0.6,0.1-1.2,0.1-1.8c0-0.6,0-1.2-0.1-1.8c-0.1-0.4-0.2-0.8-0.5-1.1c-0.2-0.3-0.5-0.5-0.9-0.6c-0.4-0.1-0.9-0.2-1.3-0.2
	c-0.5,0-0.9,0.1-1.4,0.2c-0.3,0.1-0.7,0.3-0.9,0.6c-0.2,0.3-0.4,0.7-0.5,1.1c-0.1,0.6-0.1,1.2-0.1,1.8c0,0.6,0,1.2,0.1,1.8
	c0.1,0.4,0.2,0.8,0.5,1.1c0.2,0.3,0.5,0.5,0.9,0.6C111.6,192.6,112,192.7,112.5,192.7z"/>
<path d="M125.4,194c-0.6,0-1.3-0.1-1.9-0.2c-0.5-0.1-1-0.4-1.4-0.8c-0.4-0.4-0.7-1-0.9-1.5c-0.2-0.8-0.3-1.6-0.3-2.4
	c0-0.8,0.1-1.6,0.3-2.4c0.2-0.6,0.5-1.1,0.9-1.5c0.4-0.4,0.9-0.7,1.4-0.8c0.6-0.2,1.3-0.3,1.9-0.2c0.6,0,1.3,0.1,1.9,0.2
	c0.5,0.1,1,0.4,1.4,0.8c0.4,0.4,0.7,1,0.9,1.5c0.2,0.8,0.3,1.6,0.3,2.4c0,0.8-0.1,1.6-0.3,2.4c-0.2,0.6-0.5,1.1-0.9,1.5
	c-0.4,0.4-0.9,0.7-1.4,0.8C126.7,193.9,126,194,125.4,194z M125.4,192.7c0.5,0,0.9,0,1.4-0.2c0.3-0.1,0.7-0.3,0.9-0.6
	c0.2-0.3,0.4-0.7,0.5-1.1c0.1-0.6,0.1-1.2,0.1-1.8c0-0.6,0-1.2-0.1-1.8c-0.1-0.4-0.2-0.8-0.5-1.1c-0.2-0.3-0.5-0.5-0.9-0.6
	c-0.9-0.3-1.8-0.3-2.7,0c-0.4,0.1-0.7,0.3-0.9,0.6c-0.2,0.3-0.4,0.7-0.5,1.1c-0.1,0.6-0.1,1.2-0.1,1.8c0,0.6,0,1.2,0.1,1.8
	c0.1,0.4,0.2,0.8,0.5,1.1c0.2,0.3,0.5,0.5,0.9,0.6C124.5,192.6,124.9,192.7,125.4,192.7z"/>
<path d="M145.5,183.9c0.7,0,1.4,0.1,2,0.4c0.5,0.2,0.9,0.6,1.2,1c0.3,0.5,0.5,1,0.6,1.6c0.1,0.7,0.2,1.3,0.2,2
	c0,0.6-0.1,1.3-0.2,1.9c-0.1,0.6-0.3,1.1-0.6,1.6c-0.3,0.5-0.7,0.9-1.2,1.1c-0.6,0.3-1.3,0.4-2,0.4c-0.7,0.1-1.5-0.1-2.1-0.5
	c-0.5-0.3-0.8-0.8-1-1.4l-0.2,1.7h-1.4v-13.6h1.6v5.7c0.2-0.6,0.5-1,1-1.4C144,184.1,144.8,183.9,145.5,183.9z M145.3,192.7
	c0.5,0,1-0.1,1.4-0.3c0.3-0.2,0.6-0.5,0.8-0.8c0.2-0.4,0.3-0.8,0.4-1.2c0.1-0.5,0.1-0.9,0.1-1.4c0-0.5,0-1-0.1-1.4
	c0-0.4-0.2-0.8-0.4-1.2c-0.2-0.3-0.4-0.6-0.8-0.8c-0.4-0.2-0.9-0.3-1.4-0.3c-0.5,0-1,0.1-1.5,0.3c-0.4,0.2-0.7,0.4-0.9,0.8
	c-0.2,0.4-0.4,0.8-0.5,1.2c-0.1,0.5-0.1,1-0.1,1.5c0,0.5,0,1,0.1,1.5c0.1,0.4,0.2,0.8,0.5,1.2c0.2,0.3,0.6,0.6,0.9,0.8
	C144.3,192.6,144.8,192.7,145.3,192.7L145.3,192.7z"/>
<path d="M156.2,193.9c-0.6,0-1.2-0.1-1.6-0.5c-0.4-0.4-0.6-1-0.5-1.6v-11.7h1.6v11.3c0,0.3,0,0.7,0.2,1
	c0.2,0.2,0.4,0.2,0.7,0.2h0.4c0.1,0,0.3,0,0.4-0.1v1.3c-0.2,0-0.3,0.1-0.5,0.1L156.2,193.9z"/>
<path d="M168.8,184.1v9.7h-1.3l-0.2-1.4c-0.1,0.3-0.3,0.6-0.6,0.8c-0.2,0.2-0.5,0.4-0.8,0.5c-0.3,0.1-0.6,0.2-0.9,0.2
	c-0.3,0-0.6,0.1-0.9,0.1c-0.5,0-1.1-0.1-1.6-0.2c-0.4-0.1-0.7-0.4-1-0.6c-0.3-0.3-0.4-0.6-0.5-1c-0.1-0.4-0.2-0.8-0.1-1.3v-6.7h1.5
	v6.2c0,0.3,0,0.7,0.1,1c0,0.3,0.1,0.5,0.3,0.8c0.1,0.2,0.3,0.4,0.6,0.5c0.3,0.1,0.6,0.2,0.9,0.2c0.3,0,0.6,0,0.9-0.1
	c0.3,0,0.6-0.1,0.8-0.3c0.3-0.1,0.5-0.3,0.7-0.6c0.2-0.3,0.4-0.6,0.5-1v-6.6L168.8,184.1z"/>
<path d="M181.6,188c0,0.1,0,0.3,0,0.5s0,0.4-0.1,0.6l-6.6,0.4c0,0.5,0,0.9,0.2,1.4c0.1,0.4,0.3,0.7,0.5,1
	c0.3,0.3,0.6,0.5,1,0.6c0.5,0.1,1,0.2,1.5,0.2c0.5,0,1.1-0.1,1.6-0.2c0.5-0.1,0.9-0.2,1.4-0.5v1.5c-0.2,0.1-0.4,0.2-0.6,0.2
	c-0.3,0.1-0.5,0.1-0.8,0.2c-0.3,0.1-0.6,0.1-0.9,0.1c-0.3,0-0.7,0-1,0c-0.6,0-1.3-0.1-1.9-0.2c-0.5-0.1-1-0.4-1.4-0.8
	c-0.4-0.4-0.7-1-0.9-1.5c-0.2-0.8-0.3-1.6-0.3-2.4c0-0.8,0.1-1.6,0.3-2.4c0.2-0.6,0.5-1.1,0.9-1.5c0.4-0.4,0.9-0.7,1.4-0.8
	c0.6-0.2,1.2-0.3,1.9-0.2c0.7,0,1.4,0.1,2,0.4c0.5,0.2,0.9,0.6,1.2,1c0.3,0.4,0.5,0.8,0.6,1.3C181.5,187.1,181.6,187.5,181.6,188z
	 M180,188c0-0.4,0-0.7-0.1-1.1c0-0.3-0.1-0.6-0.3-0.9c-0.2-0.3-0.4-0.5-0.7-0.6c-0.4-0.2-0.8-0.2-1.3-0.2c-0.5,0-0.9,0.1-1.4,0.2
	c-0.3,0.1-0.6,0.3-0.8,0.6c-0.2,0.3-0.4,0.6-0.4,1c-0.1,0.4-0.1,0.9-0.1,1.3L180,188z"/>
<path d="M189.1,192.6c0.2,0,0.4,0,0.6,0l0.5-0.1v1.3l-0.5,0.1H189c-0.5,0-0.9,0-1.4-0.1c-0.3-0.1-0.6-0.2-0.9-0.5
	c-0.3-0.3-0.4-0.6-0.5-1c-0.1-0.5-0.2-1-0.1-1.6v-5.5h-1.5v-1.3h1.4v-2.3h1.6v2.3h2.4v1.3h-2.4v5.4c0,0.3,0,0.6,0.1,0.9
	c0,0.2,0.1,0.4,0.2,0.6c0.1,0.1,0.3,0.2,0.4,0.3C188.6,192.6,188.8,192.6,189.1,192.6z"/>
<path d="M197.8,194c-0.6,0-1.3-0.1-1.9-0.2c-0.5-0.1-1-0.4-1.4-0.8c-0.4-0.4-0.7-1-0.9-1.5c-0.2-0.8-0.3-1.6-0.3-2.4
	c0-0.8,0.1-1.6,0.3-2.4c0.2-0.6,0.5-1.1,0.9-1.5c0.4-0.4,0.9-0.7,1.4-0.8c0.6-0.2,1.3-0.3,1.9-0.2c0.6,0,1.3,0.1,1.9,0.2
	c0.5,0.1,1,0.4,1.4,0.8c0.4,0.4,0.7,1,0.9,1.5c0.2,0.8,0.3,1.6,0.3,2.4c0,0.8-0.1,1.6-0.3,2.4c-0.2,0.6-0.5,1.1-0.9,1.5
	c-0.4,0.4-0.9,0.7-1.4,0.8C199.1,193.9,198.5,194,197.8,194z M197.8,192.7c0.5,0,0.9,0,1.4-0.2c0.3-0.1,0.7-0.3,0.9-0.6
	c0.2-0.3,0.4-0.7,0.5-1.1c0.1-0.6,0.1-1.2,0.1-1.8c0-0.6,0-1.2-0.1-1.8c-0.1-0.4-0.2-0.8-0.5-1.1c-0.2-0.3-0.5-0.5-0.9-0.6
	c-0.4-0.1-0.9-0.2-1.4-0.2c-0.5,0-0.9,0-1.4,0.2c-0.4,0.1-0.7,0.3-0.9,0.6c-0.2,0.3-0.4,0.7-0.5,1.1c-0.2,1.2-0.2,2.4,0,3.6
	c0.1,0.4,0.2,0.8,0.5,1.1c0.2,0.3,0.5,0.5,0.9,0.6C196.9,192.6,197.4,192.7,197.8,192.7z"/>
<path d="M210.8,194c-0.6,0-1.3-0.1-1.9-0.2c-0.5-0.1-1-0.4-1.4-0.8c-0.4-0.4-0.7-1-0.9-1.5c-0.2-0.8-0.3-1.6-0.3-2.4
	c0-0.8,0.1-1.6,0.3-2.4c0.2-0.6,0.5-1.1,0.9-1.5c0.4-0.4,0.9-0.7,1.4-0.8c1.3-0.3,2.6-0.3,3.8,0c0.5,0.1,1,0.4,1.4,0.8
	c0.4,0.4,0.7,1,0.9,1.5c0.2,0.8,0.3,1.6,0.3,2.4c0,0.8-0.1,1.6-0.3,2.4c-0.2,0.6-0.4,1.1-0.9,1.5c-0.4,0.4-0.9,0.7-1.4,0.8
	C212.1,193.9,211.4,194,210.8,194z M210.8,192.7c0.5,0,0.9,0,1.4-0.2c0.3-0.1,0.7-0.3,0.9-0.6c0.2-0.3,0.4-0.7,0.5-1.1
	c0.1-0.6,0.1-1.2,0.1-1.8c0-0.6,0-1.2-0.1-1.8c-0.1-0.4-0.2-0.8-0.5-1.1c-0.2-0.3-0.5-0.5-0.9-0.6c-0.4-0.1-0.9-0.2-1.3-0.2
	c-0.5,0-0.9,0.1-1.4,0.2c-0.3,0.1-0.7,0.3-0.9,0.6c-0.2,0.3-0.4,0.7-0.5,1.1c-0.1,0.6-0.1,1.2-0.1,1.8c0,0.6,0,1.2,0.1,1.8
	c0.1,0.4,0.2,0.8,0.5,1.1c0.2,0.3,0.5,0.5,0.9,0.6C209.9,192.6,210.3,192.7,210.8,192.7z"/>
<path d="M222.8,192.6c0.2,0,0.4,0,0.6,0l0.5-0.1v1.3l-0.5,0.1h-0.5c-0.5,0-0.9,0-1.4-0.1c-0.3-0.1-0.6-0.2-0.9-0.5
	c-0.3-0.3-0.4-0.6-0.5-1c-0.1-0.5-0.2-1-0.1-1.6v-5.5h-1.4v-1.3h1.4v-2.3h1.5v2.3h2.4v1.3h-2.4v5.4c0,0.3,0,0.6,0,0.9
	c0,0.2,0.1,0.4,0.2,0.6c0.1,0.1,0.3,0.2,0.4,0.3C222.3,192.6,222.5,192.7,222.8,192.6z"/>
<path d="M232.3,183.9c0.5,0,1.1,0.1,1.6,0.2c0.4,0.1,0.7,0.4,1,0.7c0.3,0.3,0.4,0.6,0.5,1c0.1,0.4,0.2,0.8,0.1,1.3v6.7
	H234v-6.1c0-0.3,0-0.7-0.1-1c0-0.3-0.1-0.5-0.3-0.7c-0.1-0.2-0.3-0.4-0.6-0.5c-0.3-0.1-0.7-0.2-1-0.2c-0.3,0-0.6,0-0.9,0.1
	c-0.3,0-0.6,0.1-0.8,0.3c-0.3,0.2-0.5,0.4-0.7,0.6c-0.2,0.3-0.4,0.6-0.5,1v6.6h-1.5v-13.7h1.5v5.3c0.1-0.3,0.3-0.6,0.6-0.8
	c0.2-0.2,0.5-0.4,0.8-0.5c0.3-0.1,0.6-0.2,0.9-0.2C231.7,183.9,232,183.9,232.3,183.9z"/>
<path d="M257.2,183.9c0.5,0,1,0.1,1.5,0.2c0.4,0.1,0.7,0.4,1,0.7c0.3,0.3,0.5,0.6,0.6,1c0.1,0.4,0.2,0.9,0.2,1.3v6.7
	h-1.5v-6.1c0-0.6-0.1-1.2-0.4-1.8c-0.4-0.5-0.9-0.7-1.5-0.6c-0.3,0-0.5,0-0.8,0.1c-0.2,0-0.5,0.1-0.7,0.3c-0.2,0.1-0.4,0.3-0.6,0.5
	c-0.2,0.3-0.3,0.5-0.4,0.9v6.8h-1.5v-6.1c0-0.6-0.1-1.2-0.4-1.7c-0.3-0.5-0.9-0.7-1.4-0.6c-0.3,0-0.6,0-0.9,0.1
	c-0.3,0-0.5,0.1-0.7,0.3c-0.2,0.1-0.4,0.3-0.6,0.5c-0.2,0.3-0.3,0.6-0.4,0.9v6.8H247v-9.7h1.5v1.3c0.2-0.5,0.7-0.9,1.2-1.2
	c0.5-0.2,1.1-0.3,1.6-0.3c0.6,0,1.3,0.1,1.8,0.4c0.4,0.3,0.8,0.7,1,1.2c0.1-0.3,0.3-0.6,0.5-0.8c0.2-0.2,0.5-0.4,0.7-0.5
	c0.3-0.1,0.6-0.2,0.9-0.2C256.6,183.9,256.9,183.9,257.2,183.9z"/>
<path d="M273.1,184.1v9.7h-1.3l-0.2-1.4c-0.1,0.3-0.3,0.6-0.6,0.8c-0.2,0.2-0.5,0.4-0.8,0.5c-0.3,0.1-0.6,0.2-0.9,0.2
	c-0.3,0-0.6,0.1-0.9,0.1c-0.5,0-1.1-0.1-1.6-0.2c-0.4-0.1-0.7-0.4-1-0.6c-0.3-0.3-0.4-0.6-0.5-1c-0.1-0.4-0.2-0.8-0.1-1.3v-6.7h1.5
	v6.2c0,0.3,0,0.7,0.1,1c0,0.3,0.1,0.5,0.3,0.8c0.1,0.2,0.3,0.4,0.6,0.5c0.3,0.1,0.6,0.2,0.9,0.2c0.3,0,0.6,0,0.9-0.1
	c0.3,0,0.6-0.1,0.8-0.3c0.3-0.1,0.5-0.3,0.7-0.6c0.2-0.3,0.4-0.6,0.5-1v-6.6L273.1,184.1z"/>
<path d="M280.4,193.9h-0.8l-0.8-0.1c-0.2,0-0.5,0-0.7-0.1l-0.5-0.1v-1.3l0.6,0.1c0.2,0,0.5,0.1,0.7,0.1s0.5,0.1,0.8,0.1
	h0.7c0.6,0,1.2-0.1,1.7-0.3c0.4-0.3,0.6-0.7,0.6-1.2c0-0.2,0-0.5-0.1-0.7c-0.1-0.2-0.2-0.3-0.3-0.5c-0.2-0.2-0.4-0.3-0.7-0.3
	c-0.4-0.1-0.7-0.2-1.1-0.3c-0.5-0.1-0.9-0.2-1.3-0.4c-0.3-0.1-0.6-0.3-0.8-0.6c-0.2-0.2-0.4-0.5-0.4-0.8c-0.1-0.3-0.1-0.7-0.1-1.1
	c0-0.7,0.3-1.4,0.9-1.9c0.8-0.5,1.7-0.8,2.6-0.7c0.5,0,0.9,0,1.4,0.1c0.4,0,0.7,0.1,1,0.2l-0.1,1.3c-0.3-0.1-0.7-0.2-1-0.3
	c-0.4-0.1-0.9-0.1-1.3-0.1c-0.5,0-1.1,0.1-1.5,0.3c-0.4,0.2-0.6,0.7-0.5,1.1c0,0.2,0,0.4,0.1,0.6c0.1,0.2,0.2,0.3,0.3,0.4
	c0.2,0.1,0.4,0.2,0.6,0.3c0.2,0.1,0.5,0.2,0.9,0.2c0.5,0.1,1,0.2,1.4,0.4c0.3,0.1,0.7,0.3,0.9,0.6c0.2,0.2,0.4,0.5,0.5,0.8
	c0.1,0.4,0.2,0.8,0.2,1.2c0.1,0.8-0.3,1.6-1,2.1C282.3,193.8,281.4,194,280.4,193.9z"/>
<path d="M289.4,182.3c-0.3,0-0.5,0-0.7-0.2c-0.1-0.1-0.2-0.4-0.2-0.8s0.1-0.7,0.2-0.8c0.2-0.1,0.5-0.2,0.7-0.1
	c0.2,0,0.5,0,0.7,0.1c0.1,0.1,0.2,0.4,0.2,0.8s-0.1,0.6-0.2,0.8C289.9,182.3,289.6,182.3,289.4,182.3z M288.6,184.1h1.5v9.7h-1.5
	L288.6,184.1L288.6,184.1z"/>
<path d="M299.2,194c-0.6,0-1.3-0.1-1.9-0.2c-0.5-0.1-1-0.4-1.4-0.8c-0.4-0.4-0.7-1-0.9-1.5c-0.2-0.8-0.3-1.6-0.3-2.4
	c0-0.8,0.1-1.6,0.3-2.4c0.2-0.6,0.5-1.1,0.9-1.5c0.4-0.4,0.9-0.7,1.4-0.8c0.6-0.2,1.3-0.3,1.9-0.2c0.5,0,1,0,1.5,0.1
	c0.4,0.1,0.7,0.1,1.1,0.2v1.4c-0.4-0.1-0.8-0.2-1.1-0.3c-0.5-0.1-0.9-0.1-1.4-0.1c-0.5,0-0.9,0-1.4,0.2c-0.3,0.1-0.7,0.3-0.9,0.6
	c-0.3,0.3-0.4,0.7-0.5,1.1c-0.1,0.6-0.2,1.2-0.1,1.8c0,0.6,0,1.2,0.1,1.8c0.1,0.4,0.2,0.8,0.5,1.1c0.2,0.3,0.5,0.5,0.9,0.6
	c0.4,0.1,0.9,0.2,1.4,0.2c0.5,0,0.9,0,1.4-0.1c0.4-0.1,0.8-0.2,1.2-0.3v1.4c-0.2,0.1-0.3,0.1-0.5,0.1l-0.6,0.1l-0.7,0.1
	C299.7,194,299.4,194,299.2,194z"/>
<path d="M317.1,183.9c0.7,0,1.4,0.1,2,0.4c0.5,0.2,0.9,0.6,1.2,1c0.3,0.5,0.5,1,0.6,1.6c0.1,0.7,0.2,1.3,0.2,2
	c0,0.6-0.1,1.3-0.2,1.9c-0.1,0.6-0.3,1.1-0.6,1.6c-0.3,0.5-0.7,0.9-1.2,1.1c-0.6,0.3-1.3,0.4-2,0.4c-0.7,0.1-1.5-0.1-2.1-0.5
	c-0.5-0.3-0.8-0.8-1-1.4v5.4h-1.5v-13.4h1.5v1.8c0.2-0.6,0.5-1,1-1.4C315.6,184.1,316.4,183.9,317.1,183.9z M316.9,192.7
	c0.5,0,1-0.1,1.4-0.3c0.3-0.2,0.6-0.5,0.8-0.8c0.2-0.4,0.3-0.8,0.4-1.2c0.1-0.5,0.1-0.9,0.1-1.4c0-0.5,0-1-0.1-1.4
	c-0.1-0.4-0.2-0.8-0.4-1.2c-0.2-0.3-0.5-0.6-0.8-0.8c-0.4-0.2-0.9-0.3-1.4-0.3c-0.5,0-1,0.1-1.5,0.3c-0.4,0.2-0.7,0.4-0.9,0.8
	c-0.2,0.4-0.4,0.8-0.5,1.2c-0.1,0.5-0.1,1-0.1,1.5c0,0.5,0,1,0.1,1.5c0.1,0.4,0.3,0.8,0.5,1.2c0.2,0.3,0.6,0.6,0.9,0.8
	C315.9,192.6,316.4,192.7,316.9,192.7L316.9,192.7z"/>
<path d="M327.8,193.9c-0.6,0-1.2-0.1-1.6-0.5c-0.4-0.4-0.6-1-0.5-1.6v-11.7h1.5v11.3c0,0.3,0,0.7,0.2,1
	c0.2,0.2,0.4,0.2,0.7,0.2h0.4c0.1,0,0.3,0,0.4-0.1v1.3c-0.2,0-0.3,0.1-0.5,0.1L327.8,193.9z"/>
<path d="M336.4,183.9c0.6,0,1.3,0.1,1.9,0.2c0.4,0.1,0.8,0.3,1.2,0.6c0.3,0.3,0.5,0.6,0.6,1c0.1,0.4,0.2,0.8,0.2,1.2
	v6.9H339l-0.2-1.5c-0.2,0.3-0.3,0.5-0.6,0.7c-0.2,0.2-0.5,0.4-0.8,0.5c-0.3,0.1-0.7,0.3-1,0.3c-0.4,0.1-0.7,0.1-1.1,0.1
	c-0.9,0.1-1.8-0.2-2.5-0.8c-0.6-0.6-0.8-1.3-0.8-2.1c0-0.5,0.1-1,0.3-1.5c0.2-0.4,0.4-0.7,0.8-1c0.4-0.3,0.8-0.4,1.2-0.5
	c0.5-0.1,1-0.2,1.6-0.2h3v-0.8c0-0.3,0-0.5-0.1-0.8c-0.1-0.2-0.2-0.5-0.4-0.6c-0.2-0.2-0.5-0.3-0.7-0.4c-0.4-0.1-0.8-0.1-1.2-0.1
	c-0.3,0-0.7,0-1,0c-0.4,0-0.7,0.1-1.1,0.2V184c0.4,0,0.7-0.1,1.1-0.1S336.1,183.9,336.4,183.9z M335.4,192.7c0.7,0,1.4-0.2,2.1-0.5
	c0.6-0.3,1-0.8,1.2-1.4v-1.6h-2.9c-0.3,0-0.7,0-1,0.1c-0.3,0-0.5,0.1-0.7,0.3c-0.2,0.1-0.3,0.3-0.4,0.6c-0.1,0.3-0.2,0.6-0.1,0.9
	c0,0.4,0.1,0.9,0.4,1.2C334.4,192.6,334.9,192.7,335.4,192.7z"/>
<path d="M344.8,196.1c0.7,0.1,1.3-0.1,1.9-0.6c0.5-0.5,0.8-1.1,1-1.7l-3.9-9.7h1.7l3,8.1h0.1l2.8-8.1h1.6l-3.5,9.4
	c-0.2,0.6-0.4,1.1-0.7,1.6c-0.2,0.5-0.5,0.9-0.9,1.2c-0.3,0.3-0.8,0.6-1.2,0.8c-0.6,0.2-1.2,0.3-1.8,0.3L344.8,196.1z"/>
<path d="M364.1,188c0,0.1,0,0.3,0,0.5s0,0.4-0.1,0.6l-6.6,0.4c0,0.5,0,0.9,0.2,1.4c0.1,0.4,0.3,0.7,0.5,1
	c0.3,0.3,0.6,0.5,1,0.6c0.5,0.1,1,0.2,1.5,0.2c0.6,0,1.1-0.1,1.6-0.2c0.5-0.1,0.9-0.2,1.4-0.5v1.4c-0.2,0.1-0.4,0.2-0.5,0.2
	c-0.3,0.1-0.5,0.1-0.8,0.2c-0.3,0.1-0.6,0.1-0.9,0.1c-0.3,0-0.7,0-1,0c-0.6,0-1.3-0.1-1.9-0.2c-0.5-0.1-1-0.4-1.4-0.8
	c-0.4-0.4-0.7-1-0.9-1.5c-0.2-0.8-0.3-1.6-0.3-2.4c0-0.8,0.1-1.6,0.3-2.4c0.2-0.6,0.5-1.1,0.9-1.5c0.4-0.4,0.9-0.7,1.4-0.8
	c0.6-0.2,1.2-0.3,1.9-0.2c0.7,0,1.4,0.1,2,0.4c0.5,0.2,0.9,0.6,1.2,1c0.3,0.4,0.5,0.8,0.6,1.3C364,187.1,364.1,187.5,364.1,188z
	 M362.5,188c0-0.4,0-0.7-0.1-1.1c0-0.3-0.1-0.6-0.3-0.9c-0.2-0.3-0.4-0.5-0.7-0.6c-0.4-0.2-0.8-0.2-1.3-0.2c-0.5,0-0.9,0.1-1.4,0.2
	c-0.3,0.1-0.6,0.3-0.8,0.6c-0.2,0.3-0.4,0.6-0.4,1c-0.1,0.4-0.1,0.9-0.1,1.3L362.5,188z"/>
<path d="M373.4,183.9l0,1.4h-0.2c-0.3,0-0.6,0-0.9,0.1c-0.3,0.1-0.6,0.2-0.8,0.3c-0.3,0.2-0.5,0.4-0.7,0.7
	c-0.2,0.3-0.4,0.7-0.5,1.1v6.4h-1.5v-9.7h1.5v1.8c0.1-0.4,0.3-0.7,0.6-1c0.2-0.2,0.5-0.4,0.8-0.6c0.3-0.1,0.6-0.2,0.9-0.3
	c0.3-0.1,0.6-0.1,0.9-0.1L373.4,183.9z"/>
</svg>
